<svg width="46" height="41" viewBox="0 0 46 41" xmlns="http://www.w3.org/2000/svg">
    <path d="M21.932 16.708c3.55.164 6.464 1.79 8.496 4.772 1.893 2.78 3.67 5.647 5.395 8.54 2.691 4.513-.043 10.23-5.175 10.914-1.125.15-2.25.054-3.309-.395-2.11-.895-4.282-1.433-6.589-1.329-1.802.082-3.506.543-5.168 1.23-4.073 1.684-8.55-.653-9.587-5.003-.133-.559-.164-1.143-.243-1.715a7.714 7.714 0 0 1 1.186-3.898c1.645-2.622 3.256-5.266 4.95-7.854 2.38-3.638 5.761-5.46 10.044-5.262zm18.832-1.033c2.61.049 4.746 1.955 5.148 4.593.017.117.058.231.088.347v1.466c-.323.94-.519 1.955-.994 2.807-1.205 2.159-3.043 3.46-5.527 3.606-2.695.158-4.845-1.532-5.47-4.216-.977-4.203 2.54-8.682 6.755-8.603zm-32.4-5.749c3.144 1.928 4.361 6.263 2.661 9.477-1.462 2.764-4.812 3.691-7.46 2.07C1.58 20.257.452 18.46.08 16.147c-.012-.07-.053-.137-.08-.205v-1.557c.143-.558.24-1.133.438-1.67C1.692 9.329 5.319 8.06 8.364 9.927zM37.638 7.58c.146.398.27.81.347 1.228.089.477.112.966.158 1.399-.13 2.797-1.153 5.062-3.427 6.614-3.319 2.265-7.378.879-8.748-2.95-1.279-3.573.358-7.812 3.68-9.529 3.105-1.604 6.749-.131 7.99 3.238zM22.69 2.284c2.69 3.05 2.648 8.237-.092 11.237-2.911 3.186-7.555 2.811-9.956-.804-.96-1.446-1.467-3.125-1.466-4.758.051-2.48.794-4.57 2.526-6.209 2.672-2.528 6.498-2.288 8.988.534z" fill="#FFF" fill-rule="evenodd"/>
</svg>
