<svg width="42" height="42" viewBox="0 0 42 42" xmlns="http://www.w3.org/2000/svg">
    <path d="M11.867 33.649c0 .36.01.68-.002.998-.036.965.397 1.605 1.291 1.965 1.744.704 2.582 2.016 2.56 3.889-.002.19-.011.383.003.573.027.377-.06.7-.386.926H2.296c-.321-.176-.457-.44-.427-.81.053-.665.001-1.351.15-1.992.272-1.174 1.026-2.03 2.15-2.46 1.153-.44 1.66-1.214 1.556-2.425-.015-.176.002-.355.006-.532 0-.026.018-.05.042-.116 2 .444 4.012.452 6.094-.016zm25.758 3.386c.367-.002.552.109.764.429.494.747 1.028 1.483 1.644 2.131.942.992.859 1.802-.347 2.405H22.549c-.288-.252-.651-.456-.846-.766-.29-.463-.142-.996.297-1.406a9.98 9.98 0 0 0 2.004-2.575c.064-.119.304-.2.463-.202 1.64-.014 3.28-.009 4.919-.009 2.746 0 5.493.007 8.24-.007zm3.151-4.472c-.445.69-.84 1.316-1.256 1.927-.05.074-.218.096-.332.096-5.37.004-10.74.005-16.111 0-.124-.001-.306-.031-.363-.115-.413-.602-.8-1.222-1.241-1.908h19.303zM13.978 15.258c1.19-.014 1.81.914 1.385 1.92-.191.452-.32.982-.286 1.462.029.398.248.867.536 1.15 2.817 2.772 2.722 7.57-1.353 10.19-2.922 1.879-6.066 1.986-9.267.834C2.979 30.09 1.388 28.81.55 26.777.278 26.12.178 25.39 0 24.692v-.82c.065-.319.12-.64.198-.954a6.38 6.38 0 0 1 1.652-2.972c.678-.691.855-1.461.515-2.362a8.556 8.556 0 0 1-.231-.699c-.23-.815.3-1.557 1.15-1.609.176-.01.355-.003.532-.003 3.387 0 6.775.027 10.162-.015zM42 27.643c-.12.779-.233 1.527-.36 2.272-.011.062-.12.134-.197.154-.102.027-.217.01-.326.01-6.665 0-13.329-.005-19.994.01-.403.001-.56-.122-.601-.501-.07-.634-.166-1.265-.258-1.945H42zm-.946-4.838c.482.697.628 1.49.766 2.341h-3.338c.138-.248.252-.457.371-.662.322-.553.641-1.108.97-1.656.334-.554.869-.546 1.23-.023zm-9.303.04c.445.743.876 1.495 1.343 2.293h-3.92c.08-.153.142-.28.213-.402.364-.624.727-1.25 1.098-1.87.363-.606.908-.617 1.266-.02zm-9.435-.175c.505.788.96 1.607 1.465 2.464h-3.34c.114-.871.288-1.672.786-2.373.296-.418.828-.498 1.089-.09zM36.564 7.076c-.614 2.302-.813 4.6-.267 6.937.549 2.344 1.94 4.185 3.523 5.967-.232.084-.398.138-.56.204-.683.28-1.188.758-1.556 1.394-.624 1.074-1.256 2.143-1.908 3.254-.083-.122-.152-.213-.21-.311-.574-.977-1.142-1.958-1.72-2.932-1.308-2.2-4.186-2.195-5.488.01-.563.951-1.118 1.908-1.677 2.862-.068.114-.144.224-.243.377-.547-.932-1.091-1.811-1.587-2.717-.541-.991-1.19-1.839-2.44-2.104.376-.463.7-.88 1.042-1.279 2.397-2.795 3.182-6.033 2.636-9.63-.102-.673-.26-1.338-.397-2.032h10.852zM38.739 0v4.572H23.516V0h15.223z" fill="#FFF" fill-rule="evenodd"/>
</svg>
