<svg width="40" height="40" viewBox="0 0 40 40" xmlns="http://www.w3.org/2000/svg" xmlns:xlink="http://www.w3.org/1999/xlink">
    <defs>
        <path id="a" d="M0 0h40v37.064H0z"/>
        <path id="c" d="M0 40h40V0H0z"/>
    </defs>
    <g fill="none" fill-rule="evenodd">
        <mask id="b" fill="#fff">
            <use xlink:href="#a"/>
        </mask>
        <path d="M0 9.44v-.08c.108-.067.224-.125.324-.203 2.56-1.992 5.108-4 7.688-5.966.497-.378 1.097-.654 1.69-.86a34.608 34.608 0 0 1 3.072-.892c.76-.188 1.422-.498 1.893-1.144.252-.345.507-.367.882-.173 1.38.711 2.868 1.046 4.404 1.055 1.55.009 3.055-.32 4.448-1.03.425-.218.697-.191.977.191.438.598 1.047.895 1.76 1.07 1.046.257 2.072.603 3.113.891a5.088 5.088 0 0 1 1.799.913c2.452 1.918 4.909 3.83 7.364 5.743l.586.46-4.971 7.555-1.382-1.12c1.163-1.767 2.296-3.489 3.427-5.212.086-.13.173-.267.227-.412.124-.34.021-.634-.266-.832-.286-.198-.597-.185-.862.053-.124.111-.22.26-.313.402-1.035 1.566-2.067 3.135-3.1 4.702-.078.117-.161.23-.252.36-.199-.148-.365-.296-.552-.409-.482-.291-1.04 0-1.094.564-.014.144-.006.29-.006.436V37.064H9.145V15.522c0-.132.04-.283-.01-.392-.108-.236-.215-.551-.412-.646-.198-.096-.514 0-.757.08-.172.056-.307.225-.472.354-.095-.137-.17-.242-.241-.35-1.04-1.578-2.08-3.158-3.122-4.735a1.87 1.87 0 0 0-.317-.397.65.65 0 0 0-.833-.05c-.288.192-.405.483-.285.825.056.159.153.305.246.447 1.058 1.614 2.12 3.226 3.18 4.838.076.116.15.234.229.36l-1.376 1.112-.288-.432L0 9.44" fill="#FFF" mask="url(#b)"/>
        <mask id="d" fill="#fff">
            <use xlink:href="#c"/>
        </mask>
        <path fill="#FFF" mask="url(#d)" d="M9.16 40h21.664v-1.408H9.16z"/>
    </g>
</svg>
