<svg width="41" height="41" viewBox="0 0 41 41" xmlns="http://www.w3.org/2000/svg" xmlns:xlink="http://www.w3.org/1999/xlink">
    <defs>
        <path id="a" d="M0 0h41v19.974H0z"/>
    </defs>
    <g fill="none" fill-rule="evenodd">
        <g>
            <mask id="b" fill="#fff">
                <use xlink:href="#a"/>
            </mask>
            <path d="M24.1 8.546c.055-1.94-1.54-3.59-3.533-3.657-1.937-.064-3.589 1.523-3.665 3.522-.075 1.946 1.55 3.63 3.55 3.677 1.942.047 3.59-1.554 3.647-3.542M0 1.52v-.64L.88 0h39.24l.88.88v.641c-.494 1.16-1.548.829-2.488.892v17.561c-.164-.155-.27-.25-.37-.35-2.728-2.726-5.454-5.453-8.182-8.178-.744-.744-1.356-.747-2.093-.01l-5.833 5.828c-.102.102-.208.198-.42.398-.097-.153-.163-.308-.274-.42-2.723-2.729-5.45-5.454-8.178-8.18-.776-.775-1.368-.773-2.15.01L2.858 17.22c-.104.104-.214.202-.388.366V2.412C1.547 2.35.494 2.68 0 1.522" fill="#FFF" mask="url(#b)"/>
        </g>
        <path d="M41 24.984v.641c-.32.693-.87.892-1.613.891-12.591-.014-25.183-.014-37.774 0C.87 26.517.32 26.318 0 25.625v-.64c.494-1.16 1.548-.829 2.482-.892 0-.905.012-1.782-.006-2.658a.916.916 0 0 1 .296-.734c3.007-2.993 6.005-5.996 9.005-8.995.1-.1.206-.195.37-.35.123.16.21.297.323.41 3.45 3.454 6.903 6.908 10.358 10.36.66.658 1.328 1.308 1.993 1.962l2.8.015h.492l.057-.12-4.654-4.653 5.507-5.506c.065.086.148.227.26.34 2.856 2.86 5.715 5.718 8.573 8.578.368.368.855.677.643 1.35.953.064 2.007-.267 2.501.892M7.287 41c-.83-.416-1.016-.768-.868-1.697.533-3.343 1.07-6.686 1.606-10.03.019-.115.052-.228.08-.351h4.78l-.385 2.372h5.584v-2.362h4.797v2.35h5.618l-.384-2.347h4.796c.157.93.319 1.872.474 2.815.413 2.498.82 4.998 1.235 7.497.162.97.021 1.285-.827 1.753H30.91c-.628-.2-.93-.649-1.024-1.285-.154-1.04-.331-2.077-.501-3.115-.157-.956-.318-1.911-.477-2.864h-6.006v.454c0 1.733-.024 3.466.012 5.198.015.744-.2 1.293-.893 1.612H18.98c-.693-.32-.907-.868-.893-1.612.035-1.745.012-3.492.012-5.238v-.424h-5.99c-.026.11-.057.21-.073.312-.304 1.852-.616 3.703-.903 5.558-.103.667-.343 1.197-1.042 1.404H7.287zM.88 0 0 .88V0zM41 .88 40.12 0H41v.88zM20.491 9.686a1.209 1.209 0 0 1-1.19-1.207A1.21 1.21 0 0 1 20.51 7.29a1.21 1.21 0 0 1 1.19 1.207 1.209 1.209 0 0 1-1.208 1.19" fill="#FFF"/>
    </g>
</svg>
