<svg width="49" height="49" xmlns="http://www.w3.org/2000/svg" xmlns:xlink="http://www.w3.org/1999/xlink">
    <defs>
        <path id="a" d="M0 0h36.894v36.856H0z"/>
        <path id="c" d="M0 0h17.77v17.798H0z"/>
    </defs>
    <g fill="none" fill-rule="evenodd">
        <g transform="translate(0 12.144)">
            <mask id="b" fill="#fff">
                <use xlink:href="#a"/>
            </mask>
            <path d="M24.998 18.526c-.07-.15-.145-.503-.356-.73a39.652 39.652 0 0 0-2.196-2.2c-.554-.513-1.381-.455-1.91.057-.54.521-.614 1.383-.093 1.947.703.761 1.44 1.493 2.2 2.197.448.416 1.015.454 1.564.186.517-.253.764-.7.791-1.457zm-9.476 9.46c-.072-.152-.153-.501-.365-.73a41.49 41.49 0 0 0-2.16-2.169c-.568-.53-1.412-.48-1.948.05-.534.528-.595 1.384-.071 1.948.694.748 1.42 1.468 2.164 2.165.447.419 1.005.476 1.561.219.543-.252.796-.71.82-1.483zm.127-9.356c-.81.035-1.253.296-1.506.843-.257.557-.158 1.153.31 1.628a305.89 305.89 0 0 0 3.314 3.315c.62.61 1.478.621 2.058.055.59-.576.584-1.455-.044-2.093a149.258 149.258 0 0 0-3.29-3.272c-.268-.257-.666-.38-.842-.476zm14.099-4.822c-.09-.183-.175-.553-.401-.788a131.854 131.854 0 0 0-3.481-3.487c-.548-.529-1.425-.48-1.953.034-.531.519-.607 1.397-.079 1.948a122.577 122.577 0 0 0 3.552 3.55c.422.406.973.457 1.518.201.546-.256.792-.712.844-1.458zM0 19.823c.08-.32.148-.645.243-.961.79-2.641 2.686-4.16 5.204-4.948.991-.31 2.065-.351 3.1-.525 2.506-.422 4.177-2.372 4.359-5.075.29-4.31 3.028-7.41 7.257-8.26.68-.136 1.151-.032 1.673.495 4.89 4.94 9.815 9.847 14.737 14.756.26.258.36.489.308.87-.612 4.466-3.82 7.47-8.335 7.777-2.692.183-4.615 1.81-5.063 4.313-.168.939-.184 1.914-.438 2.827-.675 2.43-2.032 4.346-4.462 5.321-.495.2-1.03.298-1.547.443h-1.627c-.073-.027-.143-.07-.219-.08a6.868 6.868 0 0 1-3.947-1.968C8.17 31.753 5.11 28.686 2.05 25.619c-.897-.898-1.496-1.973-1.824-3.197C.14 22.1.075 21.774 0 21.45v-1.627z" fill="#FFF" mask="url(#b)"/>
        </g>
        <path d="M25.72 5.568c.81.019 1.521.373 2.137.991 3.725 3.736 7.459 7.463 11.19 11.193 1.172 1.172 2.353 2.335 3.512 3.52.828.845 1.1 1.856.706 2.988-.392 1.127-1.22 1.768-2.397 1.917-.93.117-1.724-.213-2.383-.866-.815-.807-1.624-1.622-2.436-2.433-4.08-4.08-8.158-8.161-12.242-12.236-.76-.759-1.144-1.632-.949-2.716.244-1.35 1.427-2.346 2.863-2.358" fill="#FFF"/>
        <g transform="translate(31.23)">
            <mask id="d" fill="#fff">
                <use xlink:href="#c"/>
            </mask>
            <path d="M0 5.757c1.678-1.725 4.893-1.752 8.04.032.139-.172.28-.386.458-.565 1.45-1.459 2.899-2.918 4.364-4.361.899-.886 2.116-1.097 3.217-.6a2.85 2.85 0 0 1 1.688 2.761c-.04.784-.378 1.433-.932 1.984-1.48 1.472-2.953 2.953-4.432 4.426-.124.124-.273.222-.428.345 1.067 1.466 1.544 3.035 1.357 4.773-.13 1.209-.55 2.31-1.286 3.246L0 5.758" fill="#FFF" mask="url(#d)"/>
        </g>
    </g>
</svg>
