<svg width="42" height="42" viewBox="0 0 42 42" xmlns="http://www.w3.org/2000/svg" xmlns:xlink="http://www.w3.org/1999/xlink">
    <defs>
        <path id="a" d="M0 0h16.63v42H0z"/>
        <path id="c" d="M0 0h22.94v28.45H0z"/>
    </defs>
    <g fill="none" fill-rule="evenodd">
        <g>
            <mask id="b" fill="#fff">
                <use xlink:href="#a"/>
            </mask>
            <path d="M0 3.037c.175-.692.413-1.35.917-1.885C1.609.418 2.454.015 3.458.011A1143.5 1143.5 0 0 1 13.133.01c1.947.009 3.421 1.507 3.49 3.505.013.382.005.765.003 1.148-.004.71-.225.936-.931.937-2.542.002-5.084 0-7.626 0-1.376 0-1.934.669-1.718 2.11h9.246c.123 0 .246-.007.368.004.369.034.64.317.652.67a.703.703 0 0 1-.61.71c-.134.02-.273.013-.41.013H6.325v2.097h9.257c.7 0 1.041.235 1.036.706-.004.472-.342.697-1.047.697H6.33v2.088h9.205c.123 0 .247-.006.369.005.426.037.713.323.714.702 0 .397-.302.685-.755.69-.86.008-1.722.002-2.582.002H6.333v2.112h9.258c.137 0 .275-.007.41.01a.697.697 0 0 1 .616.661.701.701 0 0 1-.565.709c-.132.026-.272.017-.408.017H6.318c0 .363-.03.69.006 1.01.083.712.698 1.179 1.534 1.18 2.541.003 5.083.001 7.625.001.137 0 .273-.004.41.005.451.028.718.266.724.722.01.764.03 1.534-.045 2.292a3.368 3.368 0 0 1-2.704 2.975c-2.06.41-4.127.789-6.194 1.165-.978.179-1.361.528-1.469 1.514-.275 2.526-.53 5.054-.792 7.58-.057.558-.09 1.119-.178 1.671-.165 1.043-.746 1.766-1.748 2.134-.125.046-.247.099-.37.148h-.903c-.382-.173-.79-.306-1.14-.53C.469 41.084.19 40.456 0 39.786V3.037z" fill="#FFF" mask="url(#b)"/>
        </g>
        <path d="M29.933 42c-.218-.067-.438-.13-.655-.202-1.858-.618-3.147-2.688-2.821-4.707.207-1.288.617-2.543.858-3.828.17-.907.24-1.837.3-2.76.043-.672.32-.948.983-.834 1.304.226 2.608.225 3.911-.01.541-.099.952.175.926.692-.089 1.81.42 3.51.888 5.222.26.953.45 1.917.268 2.912-.32 1.747-1.61 3.063-3.366 3.447-.05.01-.096.045-.144.068h-1.148z" fill="#FFF"/>
        <g transform="translate(19.06 .002)">
            <mask id="d" fill="#fff">
                <use xlink:href="#c"/>
            </mask>
            <path d="M16.137 14.005c-.031.37.276.723.655.75.4.029.973-.493 1.007-.917a.681.681 0 0 0-.607-.738c-.415-.045-1.018.472-1.055.905m-2.621-2.03c-.174-.203-.303-.431-.497-.56-.268-.178-.555-.084-.78.134-.41.399-.814.802-1.212 1.212-.326.335-.334.76-.036 1.046.291.279.683.264 1.019-.06.401-.387.8-.778 1.178-1.187.13-.14.194-.34.328-.586m1.987 4.164c-.195-.216-.334-.457-.543-.578-.29-.168-.577-.04-.81.194-1.33 1.332-2.663 2.66-3.99 3.995-.345.348-.352.753-.05 1.048.297.291.698.274 1.049-.074a608.922 608.922 0 0 0 3.96-3.967c.144-.145.223-.354.384-.618m-3.588-8.122c-.19-.218-.323-.47-.532-.588-.303-.17-.597-.035-.843.212-1.453 1.46-2.913 2.915-4.367 4.374-.368.369-.398.77-.097 1.078.293.3.72.273 1.081-.088a878.86 878.86 0 0 0 4.367-4.374c.144-.146.227-.353.39-.614M0 14.71c.058-4.332 1.09-7.83 3.59-10.808C5.211 1.973 7.223.636 9.733.173c3.063-.566 5.769.28 8.125 2.252 2.447 2.05 3.896 4.724 4.598 7.802.973 4.268.508 8.37-1.65 12.213-1.458 2.598-3.502 4.603-6.397 5.512-3.779 1.188-7.095.207-9.924-2.47C2.16 23.283.879 20.506.31 17.392.12 16.348.063 15.28 0 14.712" fill="#FFF" mask="url(#d)"/>
        </g>
    </g>
</svg>
