<svg width="42" height="42" viewBox="0 0 42 42" xmlns="http://www.w3.org/2000/svg" xmlns:xlink="http://www.w3.org/1999/xlink">
    <defs>
        <path id="a" d="M0 42h42V0H0z"/>
    </defs>
    <g fill="none" fill-rule="evenodd">
        <path d="M0 41.5c.08-.801.17-1.602.235-2.405.328-4.057.651-8.113.973-12.17.259-3.251.512-6.503.77-9.754.027-.352.064-.704.098-1.076h7.317l2.757 25.9H0V41.5z" fill="#FFF"/>
        <mask id="b" fill="#fff">
            <use xlink:href="#a"/>
        </mask>
        <path d="M34.662 34.588h4.866v-2.433h-4.866v2.433zm-7.392-.02h4.887v-2.41H27.27v2.41zm-7.4.01h4.88v-2.422h-4.88v2.422zM42 42H14.632l-.787-7.394h3.5v-2.463h-3.758c-.097-.882-.192-1.723-.282-2.563-.183-1.717-.37-3.433-.538-5.151a.773.773 0 0 1 .145-.513c1.737-2.135 3.486-4.26 5.238-6.384.08-.096.208-.214.316-.215 1.064-.016 2.128-.01 3.238-.01v8.236l.088.04c.109-.127.22-.252.326-.38 2.09-2.52 4.184-5.035 6.266-7.561.2-.243.4-.352.72-.344.956.022 1.913.008 2.921.008v7.845l.098.051c.072-.083.146-.166.217-.25 2.023-2.45 4.047-4.9 6.063-7.355.171-.208.343-.303.619-.298.983.017 1.966.007 2.978.007V42zM23.267 1.324c.86-.62 1.806-1.058 2.864-1.226 1.862-.296 3.56.104 5.066 1.244.244.185.41.187.683.066 2.268-1 4.432-.782 6.338.807 1.903 1.588 2.586 3.692 1.952 6.096-.638 2.417-2.285 3.875-4.73 4.365-1.374.276-2.695.02-3.916-.674-.245-.14-.396-.106-.618.038-1.96 1.277-4.04 1.494-6.212.623-.265-.106-.399-.069-.593.117-2.296 2.192-5.675 2.677-8.472 1.218-.247-.13-.414-.14-.654.033a6.145 6.145 0 0 1-3.187 1.168c-.067-.582-.135-1.133-.194-1.686-.202-1.907-.408-3.814-.592-5.723-.03-.308-.143-.379-.432-.377-1.778.013-3.556.006-5.334.006H4.75a6.257 6.257 0 0 1 1.166-2.678c1.694-2.275 4.514-3.205 7.226-2.388.205.061.36.115.546-.08 2.532-2.656 6.567-2.964 9.416-1.031.045.03.097.05.164.082" fill="#FFF" mask="url(#b)"/>
        <path d="M9.125 13.576H2.274c.095-1.217.19-2.422.285-3.654h6.177l.389 3.654" fill="#FFF" mask="url(#b)"/>
    </g>
</svg>
