<svg width="36" height="29" viewBox="0 0 36 29" xmlns="http://www.w3.org/2000/svg" xmlns:xlink="http://www.w3.org/1999/xlink">
    <defs>
        <path id="a" d="M0 0h36v24.167H0z"/>
        <path id="c" d="M0 0h13.279v3.607H0z"/>
    </defs>
    <g fill="none" fill-rule="evenodd">
        <g transform="translate(0 4.833)">
            <mask id="b" fill="#fff">
                <use xlink:href="#a"/>
            </mask>
            <path d="M5.992 7.249a1.211 1.211 0 0 0 1.206-1.19 1.213 1.213 0 0 0-1.172-1.225A1.205 1.205 0 0 0 4.8 6.043c0 .655.54 1.202 1.191 1.206m12.01 13.292c4.623 0 8.393-3.795 8.397-8.45.004-4.658-3.759-8.458-8.382-8.466-4.642-.007-8.421 3.795-8.417 8.469.005 4.653 3.778 8.448 8.401 8.447M18 24.166H3.865c-2.353 0-3.864-1.522-3.865-3.892V3.89C0 1.521 1.512 0 3.867 0h28.267C34.491 0 36 1.519 36 3.891c0 5.512.002 11.024-.001 16.535-.001 1.762-1.045 3.176-2.68 3.608a4.567 4.567 0 0 1-1.148.127c-4.723.008-9.447.005-14.17.005" fill="#FFF" mask="url(#b)"/>
        </g>
        <g transform="translate(11.362)">
            <mask id="d" fill="#fff">
                <use xlink:href="#c"/>
            </mask>
            <path d="M0 3.607c.25-.974.461-1.93.746-2.863C.894.26 1.314.007 1.822.006a2058.6 2058.6 0 0 1 9.633 0c.492 0 .912.237 1.057.706.292.944.51 1.911.767 2.895H0z" fill="#FFF" mask="url(#d)"/>
        </g>
        <path d="M18.143 12.085c-.768-.012-1.319.466-1.342 1.164-.022.7.497 1.216 1.26 1.252 1.311.061 2.275 1.04 2.338 2.378.034.74.548 1.26 1.229 1.244.679-.015 1.174-.566 1.17-1.301-.012-2.522-2.15-4.696-4.655-4.737m-.15-1.21c3.315-.002 6.01 2.715 6.006 6.053-.004 3.318-2.698 6.027-5.993 6.03-3.314.002-6.01-2.717-6.006-6.055.005-3.32 2.695-6.026 5.993-6.028" fill="#FFF"/>
    </g>
</svg>
