<svg width="41" height="41" viewBox="0 0 41 41" xmlns="http://www.w3.org/2000/svg">
    <defs>
        <path id="a" d="M0 0h41v31.968H0z"/>
    </defs>
    <g fill="none" fill-rule="evenodd">
        <path d="M0 8.87v-.72c.095-.562.166-1.13.292-1.684.242-1.073 1.306-1.38 2.104-.618.367.35.716.717 1.078 1.072.77.756 1.508 1.55 2.324 2.253.964.83 2.491.628 3.296-.357.814-.997.734-2.311-.223-3.284A324.45 324.45 0 0 0 5.9 2.564c-.382-.378-.642-.79-.475-1.351.17-.571.598-.817 1.154-.9.421-.063.84-.16 1.263-.187 3.031-.194 5.49.941 7.3 3.344 1.667 2.214 2.036 4.723 1.325 7.388-.087.325-.042.525.197.763 4.243 4.224 8.479 8.453 12.703 12.695.29.292.543.364.935.268 1.32-.323 2.665-.439 4.004-.152 3.113.668 5.179 2.553 6.24 5.526.23.642.306 1.339.453 2.01v1.2c-.085.468-.165.938-.256 1.406-.096.491-.35.86-.85 1.017-.5.156-.916-.006-1.273-.36-.417-.412-.828-.83-1.247-1.241-.712-.7-1.392-1.44-2.151-2.085-.956-.814-2.467-.63-3.273.325-.85 1.007-.768 2.342.222 3.344 1.002 1.015 2.015 2.018 3.026 3.024.357.354.54.766.396 1.264-.153.53-.549.795-1.075.89L33.152 41h-1.2c-.327-.055-.658-.094-.98-.168-3.375-.783-5.581-2.817-6.498-6.163-.413-1.509-.244-3.037.117-4.541.059-.245.026-.406-.162-.594a6023.413 6023.413 0 0 1-12.927-12.912c-.186-.187-.347-.225-.594-.165-1.265.306-2.549.46-3.844.246C3.897 16.18 1.755 14.356.58 11.42.26 10.62.187 9.722 0 8.87" fill="#FFF"/>
        <path d="M6.41 36.225c.245.013.551-.233.841-.523l6.93-6.92a2.89 2.89 0 0 0 .269-.295 1.185 1.185 0 0 0-.713-1.9c-.517-.108-.895.133-1.241.48-2.317 2.318-4.638 4.633-6.956 6.95-.113.112-.23.227-.314.36-.247.39-.272.804-.052 1.213.22.408.572.616 1.236.635zM0 35.645c.182-.822.416-1.623.955-2.296a7.27 7.27 0 0 1 .525-.602c3.733-3.73 7.47-7.46 11.205-11.188.047-.046.097-.09.11-.102l6.852 6.838c-.071.045-.228.108-.337.218-3.42 3.405-6.848 6.8-10.24 10.23C8.01 39.814 6.924 40.777 5.365 41h-1.12c-.075-.024-.148-.058-.225-.07-1.339-.226-2.384-.912-3.171-2.006-.467-.648-.68-1.396-.849-2.16v-1.12zM41 3.594c-1.325 2.23-2.642 4.466-3.982 6.687-.444.735-1.285.827-1.911.239-.23-.217-.417-.482-.67-.78l-8.006 8.088-3.384-3.366 7.998-8.077c-.171-.14-.353-.258-.496-.412-.603-.642-.504-1.468.243-1.938.745-.468 1.507-.908 2.261-1.36 1.28-.766 2.56-1.534 3.842-2.298.756-.451 1.235-.391 1.858.226.53.526 1.072 1.041 1.58 1.588.256.277.447.614.667.923v.48z" fill="#FFF"/>
    </g>
</svg>
