<svg width="38" height="35" viewBox="0 0 38 35" xmlns="http://www.w3.org/2000/svg">
    <g fill="#FFF" fill-rule="evenodd">
        <path d="M0 25.23V1.908C.374.51 1.357-.003 2.726 0 13.66.026 24.592.014 35.524.015 37.106.015 38 .93 38 2.552v22.069c0 1.567-.91 2.501-2.438 2.501H25.285c-7.618 0-15.237-.001-22.855.004-.59 0-1.122-.131-1.593-.504-.452-.358-.672-.857-.837-1.392M13.138 32.726v-3.31h11.717v3.31h.417c1.843 0 3.686-.004 5.528.002.853.002 1.403.77 1.108 1.537-.17.44-.501.674-.957.728-.11.013-.222.004-.333.004H7.393c-.16 0-.325.008-.48-.024a1.14 1.14 0 0 1-.897-1.216 1.123 1.123 0 0 1 1.136-1.028c1.842-.007 3.685-.003 5.528-.003h.458z"/>
    </g>
</svg>
