<svg width="46" height="46" viewBox="0 0 46 46" xmlns="http://www.w3.org/2000/svg">
    <g fill="#FFF" fill-rule="evenodd">
        <path d="M4.582 46c-.683-.33-.97-.855-1.014-1.63-.338-5.979-.71-11.955-1.074-17.932-.253-4.154-.513-8.307-.768-12.46-.006-.088-.001-.177-.001-.293h26.208l-.216 3.565c-.197 0-.37-.002-.542 0-1.796.027-3.6-.048-5.385.102-4.773.402-8.99 4.378-9.733 9.125-.144.92-.209 1.89-.083 2.805.2 1.457 1.184 2.39 2.506 3.044-1.106 1.914-1.114 3.862-.004 5.77-.44.295-.9.533-1.271.868-1.287 1.16-1.541 2.639-1.223 4.27A6.915 6.915 0 0 0 13.207 46H4.582z"/>
        <path d="M46 28.84c-.358.779-.975 1.002-1.81 1-9.325-.019-18.65-.012-27.976-.012-1.187 0-1.688-.518-1.654-1.708.124-4.347 3.83-8.102 8.183-8.155 5.029-.062 10.06-.061 15.088 0 4.016.05 7.548 3.3 8.08 7.28.016.114.059.225.089.337v1.258zM18.059 46c-.649-.288-1.356-.49-1.932-.883-.978-.666-1.457-1.683-1.559-2.858-.09-1.042.48-1.649 1.522-1.649h18.585c3.172 0 6.345.018 9.517-.013.834-.009 1.45.222 1.808 1v.9c-.033.113-.068.226-.097.34-.363 1.421-1.222 2.404-2.596 2.924-.263.1-.54.16-.81.239H18.058zM0 9.254c.359-.778.975-1.007 1.81-1.001 3.923.029 7.846.005 11.769.024.4.002.608-.133.816-.456 1.465-2.277 2.939-4.55 4.442-6.801.262-.392.675-.683 1.018-1.02h6.11c.06.038.116.082.178.114.61.317.92.918.778 1.513-.154.649-.672 1.062-1.372 1.066-1.392.007-2.784.01-4.176-.003-.296-.003-.482.068-.654.336-1.104 1.725-2.23 3.436-3.407 5.24h.525c3.457 0 6.915-.004 10.373.002 1.033.001 1.699.913 1.342 1.823-.205.522-.607.802-1.158.864-.162.018-.329.006-.493.006-8.697 0-17.394-.008-26.091.012-.835.002-1.45-.224-1.81-1v-.72zM30.23 37.914c-3.726 0-7.452.009-11.178-.006-1.115-.005-1.953-.535-2.434-1.546-.465-.978-.347-1.93.303-2.788.55-.727 1.314-1.053 2.225-1.052 3.427.004 6.854.001 10.28.001 4.011 0 8.022-.004 12.032.003 1.545.003 2.734 1.176 2.744 2.672.008 1.52-1.184 2.71-2.75 2.713-3.74.008-7.481.003-11.222.003"/>
    </g>
</svg>
