<svg width="49" height="35" viewBox="0 0 49 35" xmlns="http://www.w3.org/2000/svg" xmlns:xlink="http://www.w3.org/1999/xlink">
    <defs>
        <path id="a" d="M0 0h49v18.672H0z"/>
        <path id="c" d="M0 0h40.08v20.222H0z"/>
        <path id="e" d="M0 0h5.178v4.661H0z"/>
    </defs>
    <g fill="none" fill-rule="evenodd">
        <g transform="translate(0 10.112)">
            <mask id="b" fill="#fff">
                <use xlink:href="#a"/>
            </mask>
            <path d="M0 3.446c.324-.667.541-1.42.992-1.985C1.994.204 3.378-.239 4.935.121 6.51.484 7.577 1.493 7.947 3.083c.465 1.996.825 4.018 1.23 6.028.331 1.64 1.45 2.552 3.156 2.553 5.79.004 11.581.002 17.372.002 2.313 0 4.626.002 6.939-.001 1.764-.003 2.846-.886 3.198-2.617.38-1.868.756-3.738 1.122-5.61.424-2.163 2.313-3.647 4.358-3.41 2.25.262 3.79 2.029 3.672 4.326-.136 2.644-.377 5.282-.512 7.926-.07 1.401-.374 2.699-1.218 3.829-1.237 1.659-2.897 2.55-4.96 2.552-11.869.014-23.737.014-35.606.003C3.371 18.66.71 16.006.551 12.657.434 10.19.238 7.725.074 5.26.068 5.167.026 5.08 0 4.988V3.446z" fill="#FFF" mask="url(#b)"/>
        </g>
        <g transform="translate(4.19)">
            <mask id="d" fill="#fff">
                <use xlink:href="#c"/>
            </mask>
            <path d="M20.083.002c4.482 0 8.964-.006 13.445.002 2.963.006 5.371 1.741 6.258 4.464.434 1.33.335 2.658.038 3.988-.022.102-.177.22-.291.25-2.572.696-3.928 2.441-4.381 5.022-.308 1.75-.68 3.49-1.038 5.233-.176.86-.67 1.259-1.548 1.259-8.166.003-16.332.003-24.498 0-.897 0-1.375-.398-1.561-1.303-.41-1.993-.778-3.995-1.217-5.981C4.783 10.642 2.981 8.992.675 8.64c-.23-.035-.36-.1-.427-.35C-.771 4.55 1.446.885 5.212.13c.496-.1 1.014-.12 1.522-.122 4.45-.009 8.9-.005 13.35-.005" fill="#FFF" mask="url(#d)"/>
        </g>
        <g transform="translate(5.62 30.339)">
            <mask id="f" fill="#fff">
                <use xlink:href="#e"/>
            </mask>
            <path d="M.505 0h4.673c-.134.565-.258 1.1-.388 1.633-.107.435-.214.87-.336 1.302-.357 1.256-1.48 1.94-2.72 1.666C.58 4.346-.177 3.208.034 1.973.148 1.313.344.666.505 0" fill="#FFF" mask="url(#f)"/>
        </g>
        <path d="M38.207 30.345h4.696c.16.732.385 1.47.47 2.226.125 1.105-.642 2.115-1.688 2.363-1.101.261-2.2-.284-2.634-1.314a3.715 3.715 0 0 1-.175-.548c-.223-.897-.441-1.796-.669-2.727" fill="#FFF"/>
    </g>
</svg>
