<svg width="42" height="42" viewBox="0 0 42 42" xmlns="http://www.w3.org/2000/svg" xmlns:xlink="http://www.w3.org/1999/xlink">
    <defs>
        <path id="a" d="M0 0h27.045v21.4H0z"/>
    </defs>
    <g fill="none" fill-rule="evenodd">
        <path d="M21.659 42c-.369-.21-.473-.544-.524-.949-.675-5.308-1.364-10.615-2.05-15.922-.006-.052-.005-.105-.009-.182h18.818l-.278 2.185-1.19 9.22c-.21 1.611-.43 3.22-.622 4.833-.046.378-.206.637-.527.815H21.66zM0 24.609c.14-.637.228-1.292.43-1.909.567-1.725 2.09-2.956 3.901-3.196.114.863.182 1.735.353 2.587a44.58 44.58 0 0 0 .832 3.413c.112.393.358.773.622 1.093.535.647 1.46.62 1.999-.026.53-.636.802-1.407.956-2.196.288-1.472.504-2.958.748-4.438.021-.132.028-.265.048-.45 1.31.268 2.41.803 3.211 1.856.712.936.994 2.027 1.088 3.173.178 2.168-.21 4.276-.731 6.363-.668 2.673-1.553 5.27-3.017 7.623a10.45 10.45 0 0 1-1.582 1.972c-1.131 1.096-2.274 1.08-3.458.039-1.078-.948-1.79-2.167-2.403-3.439C1.438 33.836.444 30.431.07 26.851c-.01-.093-.046-.182-.07-.273v-1.97z" fill="#FFF"/>
        <g transform="translate(14.955 2.089)">
            <mask id="b" fill="#fff">
                <use xlink:href="#a"/>
            </mask>
            <path d="M5.678 18.553v.003c.246 0 .493.017.737-.004.426-.038.7-.332.697-.717-.004-.384-.285-.682-.71-.7a15.64 15.64 0 0 0-1.434 0c-.419.02-.704.335-.7.714.005.363.275.66.673.7.244.024.491.004.737.004m6.054-1.427c-.763 0-1.528-.002-2.292.001-.567.003-.905.279-.898.725.007.432.335.706.877.708 1.555.005 3.11.006 4.666 0 .543-.002.855-.281.85-.727-.006-.444-.317-.702-.87-.705-.777-.005-1.555-.002-2.333-.002m.187-7.244c-1.325.363-2.632.548-3.967.503-2.946-.1-5.122-1.44-6.49-4.062-.78-1.494-1.23-3.09-1.45-4.754-.058-.445.085-.754.49-.88C2.883-.062 5.29-.33 7.694.556c1.834.677 3.016 2.06 3.87 3.765.64 1.28.99 2.65 1.279 4.046.114.554.414 1.07.641 1.63.524-.836.758-1.695.937-2.593.352-1.76 1.024-3.396 2.158-4.813C17.862.991 19.576.215 21.583.052c1.625-.132 3.218.082 4.774.564.568.176.75.443.671.997-.231 1.647-.673 3.23-1.447 4.712-1.388 2.657-3.593 3.985-6.573 4.062-1.306.034-2.585-.153-3.878-.501-.65 1.63-.98 3.295-.861 5.102h9.618c.855 0 1.092.287.977 1.134-.202 1.488-.387 2.98-.587 4.468-.085.64-.284.807-.947.808-2.023.003-4.047 0-6.07 0H3.849c-.848 0-.988-.118-1.1-.96a1268.66 1268.66 0 0 1-.6-4.55c-.074-.572.24-.897.878-.899 2.01-.003 4.02-.001 6.03-.001h3.702c.15-1.783-.202-3.445-.84-5.106" fill="#FFF" mask="url(#b)"/>
        </g>
        <path d="M7.819 2.861a.7.7 0 0 0-.674-.724.723.723 0 0 0-.737.712.705.705 0 0 0 .703.697c.398.003.7-.29.708-.685zm2.147 5.002c0 1.612.01 3.223-.002 4.835-.011 1.529-.93 2.645-2.364 2.907-1.675.306-3.303-.964-3.319-2.67a572.49 572.49 0 0 1 0-10.203C4.296 1.227 5.569.024 7.063 0A2.833 2.833 0 0 1 9.948 2.62c.007.081.016.163.016.245v4.999h.002zM7.006 25.51c-1.054-2.766-1.384-5.646-1.308-8.655.961.28 1.875.301 2.833-.009.083 3-.236 5.889-1.3 8.66l-.225.004" fill="#FFF"/>
    </g>
</svg>
