<svg width="51" height="51" viewBox="0 0 51 51" xmlns="http://www.w3.org/2000/svg">
    <g fill="#FFF" fill-rule="evenodd">
        <path d="M38.947 0v6.041H35.96V0h-2.988v6.041h-2.989V0h-2.988v6.041h-2.988V0h-2.988v6.041h-2.989V0h-2.988v6.041h-2.988V0H9.064v6.07H6.088v2.994H0v2.989h6.041v2.988H0v2.988h6.041v2.989H0v2.988h6.041v2.988H0v2.988h6.041v2.989H0v2.988h6.041v2.988H0v2.989h6.07v2.976h2.994V51h2.989v-6.041h2.988V51h2.988v-6.041h2.989V51h2.988v-6.041h2.988V51h2.988v-6.041h2.989V51h2.988v-6.041h2.988V51h2.989v-6.07h2.976v-2.994H51v-2.989h-6.041V35.96H51v-2.988h-6.041v-2.989H51v-2.988h-6.041v-2.988H51v-2.988h-6.041v-2.989H51v-2.988h-6.041v-2.988H51V9.064h-6.07V6.088h-2.994V0h-2.989zM12.08 38.925h26.833V12.092H12.079v26.833z"/>
        <path d="M21.053 26.955h8.903v-8.903h-8.903v8.903zm14.87 9.004c-1.114 0-2.192.014-3.269-.017-.15-.004-.354-.204-.435-.363a324.809 324.809 0 0 1-2.603-5.204c-.145-.297-.304-.403-.637-.4-2.307.015-4.615.015-6.923 0-.342-.003-.524.093-.68.413-.84 1.73-1.72 3.44-2.563 5.168-.154.315-.336.419-.68.411-1.01-.023-2.02-.008-3.06-.008V15.066h20.85v20.893z"/>
        <path d="M29.044 35.931h-7.087c.485-.969.94-1.897 1.421-2.813.048-.09.246-.14.375-.14 1.16-.012 2.32-.011 3.48-.002.13.002.334.042.38.13.483.916.94 1.846 1.43 2.825M24.028 23.97h2.927v-2.926h-2.927z"/>
    </g>
</svg>
