<svg width="46" height="46" viewBox="0 0 46 46" xmlns="http://www.w3.org/2000/svg" xmlns:xlink="http://www.w3.org/1999/xlink">
    <defs>
        <path id="a" d="M0 0h27.853v34.974H0z"/>
        <path id="c" d="M0 0h16.386v26.04H0z"/>
        <path id="e" d="M0 0h11.7v8.311H0z"/>
    </defs>
    <g fill="none" fill-rule="evenodd">
        <g transform="translate(18.147 11.026)">
            <mask id="b" fill="#fff">
                <use xlink:href="#a"/>
            </mask>
            <path d="M22.46 16.206v-5.073c0-2.035.005-4.07-.001-6.106-.003-.874-.616-1.469-1.438-1.42-.763.045-1.255.635-1.255 1.515V27.254c-.002.615.265 1.073.827 1.32.925.408 1.865-.284 1.866-1.37.004-3.666.002-7.332.002-10.998m-17.07-.05v3.142c0 2.664-.004 5.328.003 7.991.001.746.505 1.311 1.202 1.391.67.076 1.305-.382 1.455-1.065.038-.173.034-.357.034-.536V5.217c0-.135.008-.27-.007-.404-.11-1.018-1.249-1.555-2.093-.98-.447.303-.599.748-.598 1.28.007 3.68.004 7.362.004 11.043m18.777 18.818h-.72c-1.273-.529-.936-1.696-1.004-2.671H5.397c-.042 1.009.26 2.143-.994 2.671h-.72c-.774-.36-1.079-.974-.99-1.81.02-.192-.007-.39.005-.583.015-.223-.04-.334-.291-.401C.903 31.773.003 30.6.002 29.06 0 20.451 0 11.843.007 3.236c0-.34.047-.69.144-1.015C.568.824 1.759.008 3.369.007 8.385.002 13.401.005 18.418.005c2.066 0 4.132-.014 6.199.005 1.882.018 3.23 1.344 3.23 3.182.008 8.637.007 17.274.001 25.912 0 1.484-.93 2.692-2.36 3.065-.29.075-.356.199-.335.457.015.178-.013.36.006.538.087.835-.216 1.45-.991 1.81" fill="#FFF" mask="url(#b)"/>
        </g>
        <g transform="translate(0 19.96)">
            <mask id="d" fill="#fff">
                <use xlink:href="#c"/>
            </mask>
            <path d="M5.39 11.716c0 2.185.004 4.37-.002 6.554-.002.632.245 1.11.825 1.37.907.404 1.867-.272 1.87-1.32.007-3.007.003-6.014.003-9.022V5.034c0-.614-.262-1.075-.824-1.324-.908-.404-1.865.27-1.869 1.318-.008 2.23-.002 4.459-.003 6.688zM0 2.598c.056-.15.117-.3.169-.453C.589.913 1.699.022 2.999.015c4.103-.026 8.205-.01 12.307-.009.028 0 .056.015.147.041v.501c0 6.197.011 12.394-.009 18.591-.005 1.455.068 2.87.942 4.2H5.398c-.044 1.038.26 2.173-.996 2.701h-.719c-.772-.36-1.078-.971-.991-1.806.022-.207.038-.426-.01-.624-.03-.133-.157-.309-.276-.343-.747-.214-1.385-.592-1.804-1.245-.253-.393-.405-.852-.602-1.28V2.597z" fill="#FFF" mask="url(#d)"/>
        </g>
        <g transform="translate(26.224)">
            <mask id="f" fill="#fff">
                <use xlink:href="#e"/>
            </mask>
            <path d="M11.644 8.311h-2.63c-.007-.166-.02-.324-.02-.482-.001-1.376.002-2.752-.001-4.129-.002-.698-.288-.99-.976-.991a752.53 752.53 0 0 0-4.354 0c-.662.002-.955.299-.957.965-.004 1.376-.001 2.752-.001 4.129v.507H.08C.06 8.28.028 8.257.028 8.234.024 6.559-.038 4.88.037 3.21.115 1.463 1.639.053 3.39.022a132.04 132.04 0 0 1 4.937.002c1.767.035 3.28 1.486 3.342 3.248.058 1.629.015 3.261.015 4.892 0 .04-.022.082-.04.147" fill="#FFF" mask="url(#f)"/>
        </g>
        <path d="M15.899 11.665a14923 14923 0 0 1-.558 2.68c-.517 0-1.112-.002-1.707 0-.79.004-1.054.266-1.056 1.044v1.852H9.876c.077-1.13-.198-2.288.266-3.389.553-1.31 1.551-2.078 2.978-2.175.935-.063 1.878-.012 2.779-.012" fill="#FFF"/>
    </g>
</svg>
