<svg width="46" height="43" viewBox="0 0 46 43" xmlns="http://www.w3.org/2000/svg" xmlns:xlink="http://www.w3.org/1999/xlink">
    <defs>
        <path id="a" d="M0 0h36.39v29.528H0z"/>
        <path id="c" d="M0 0h10.79v18.815H0z"/>
    </defs>
    <g fill="none" fill-rule="evenodd">
        <g>
            <mask id="b" fill="#fff">
                <use xlink:href="#a"/>
            </mask>
            <path d="M11.454 14.755c0 1.723.002 3.447-.002 5.17 0 .448.086.855.437 1.17.452.409 1.013.464 1.665.141 3.477-1.722 6.95-3.452 10.429-5.17.552-.273.929-.65.932-1.294.003-.665-.388-1.04-.957-1.321-3.44-1.697-6.871-3.41-10.307-5.113-1.242-.616-2.193-.036-2.196 1.336-.004 1.694-.001 3.387-.001 5.081zM0 3.48c.068-.242.126-.486.205-.724C.76 1.086 2.298.004 4.147.002 10.33-.002 16.512.001 22.695.001h9.387c2.595.001 4.297 1.694 4.298 4.276.002 3.925-.005 7.85.01 11.774.001.334-.104.49-.398.633-3.22 1.57-6.432 3.157-9.652 4.729-.217.106-.48.167-.723.168-2.036.013-4.072.004-6.108.008-3.374.008-5.936 2.552-5.945 5.9v2.039H4.328C2.077 29.527.612 28.385.068 26.21c-.015-.056-.045-.108-.068-.162V3.479z" fill="#FFF" mask="url(#b)"/>
        </g>
        <g transform="translate(16.253 24.185)">
            <mask id="d" fill="#fff">
                <use xlink:href="#c"/>
            </mask>
            <path d="M10.785 0v.386c0 3.359.018 6.718-.017 10.077-.006.578-.249 1.151-.356 1.732-.33 1.78-.646 3.564-.969 5.347-.155.86-.634 1.268-1.508 1.27-1.706.004-3.412.005-5.118 0-1.013-.004-1.593-.714-1.424-1.705.347-2.02.685-4.04 1.024-6.06.017-.1.016-.204.025-.321-.142-.05-.267-.093-.39-.14A3.12 3.12 0 0 1 .007 7.662a284.66 284.66 0 0 1 .001-4.46C.025 1.455 1.39.096 3.15.085 5.334.07 7.52.084 9.705.077c.35-.001.7-.049 1.08-.077" fill="#FFF" mask="url(#d)"/>
        </g>
        <path d="M39.165 29.617v9.096c0 1.374-.947 1.958-2.189 1.348-2.304-1.132-4.604-2.271-6.912-3.395-.25-.122-.338-.263-.337-.54.01-4.34.01-8.68 0-13.02 0-.28.091-.417.34-.539 2.32-1.13 4.635-2.276 6.952-3.414 1.189-.582 2.145.008 2.146 1.324.002 3.047 0 6.094 0 9.14M43.289 33.633c.068.015.236.029.384.09.523.214 1.048.426 1.555.674.668.326.937 1.081.65 1.731a1.347 1.347 0 0 1-1.72.705 18.524 18.524 0 0 1-1.554-.679 1.314 1.314 0 0 1-.708-1.488c.145-.594.687-1.025 1.393-1.033M43.36 25.6c-.762 0-1.307-.424-1.46-1.017-.145-.567.106-1.2.651-1.474.557-.28 1.134-.528 1.72-.74.56-.203 1.195.06 1.516.564.318.502.292 1.201-.162 1.596-.684.596-1.56.825-2.265 1.07M43.92 28.28c.254 0 .508-.01.761.002.734.035 1.3.61 1.31 1.318a1.34 1.34 0 0 1-1.277 1.347c-.52.025-1.044.024-1.566.001a1.34 1.34 0 0 1-1.286-1.337c.002-.708.567-1.29 1.298-1.328.253-.014.507-.002.76-.003" fill="#FFF"/>
    </g>
</svg>
