<svg width="29" height="47" viewBox="0 0 29 47" xmlns="http://www.w3.org/2000/svg" xmlns:xlink="http://www.w3.org/1999/xlink">
    <defs>
        <path id="a" d="M0 0h29v47H0z"/>
    </defs>
    <g fill="none" fill-rule="evenodd">
        <mask id="b" fill="#fff">
            <use xlink:href="#a"/>
        </mask>
        <path d="M17.253 40.545c.007-1.505-1.197-2.68-2.737-2.671-1.518.009-2.718 1.173-2.73 2.647-.012 1.471 1.245 2.696 2.754 2.682 1.516-.012 2.706-1.18 2.713-2.658zM2.777 35.019h23.457V7.885H2.777V35.02zM23.73 0c.374.098.754.178 1.12.296 2.369.755 3.998 2.84 4.136 5.279.01.183.013.367.013.55 0 11.58.003 23.16-.002 34.74-.002 2.561-1.15 4.458-3.532 5.596-.786.375-1.632.532-2.506.532-5.635.002-11.27.017-16.904-.005-3.44-.013-6.044-2.625-6.05-6.03-.01-5.37-.003-10.74-.003-16.109 0-6.272-.005-12.544.003-18.816C.009 3.095 1.868.796 4.74.137c.178-.04.354-.091.532-.137H23.73z" fill="#FFF" mask="url(#b)"/>
    </g>
</svg>
