<svg width="46" height="44" viewBox="0 0 46 44" xmlns="http://www.w3.org/2000/svg" xmlns:xlink="http://www.w3.org/1999/xlink">
    <defs>
        <path id="a" d="M0 0h46v21.562H0z"/>
    </defs>
    <g fill="none" fill-rule="evenodd">
        <g transform="translate(0 22.438)">
            <mask id="b" fill="#fff">
                <use xlink:href="#a"/>
            </mask>
            <path d="M33.723 13.48c.582 0 1.164.004 1.747-.002.834-.008 1.432-.566 1.44-1.334.007-.768-.593-1.35-1.417-1.356-1.15-.007-2.3-.007-3.45 0-.822.006-1.423.589-1.417 1.355.007.766.608 1.327 1.44 1.335.552.006 1.104.002 1.657.002zM0 1C.35.245.94-.002 1.765 0c14.174.016 28.35.012 42.524.012 1.212 0 1.692.475 1.693 1.673 0 .494-.025.989.005 1.48.11 1.831-.432 2.35-2.217 2.235-.175-.01-.351-.001-.572-.001v.566l-.001 13.962c0 .18.008.363-.026.537a1.357 1.357 0 0 1-1.437 1.092c-.698-.065-1.22-.63-1.227-1.368-.01-1.316-.003-2.632-.003-4.015H25.957c-1.112 0-1.618-.504-1.619-1.612V8.1h16.143V5.43H5.478v.524l-.001 13.961c0 .194.005.393-.036.58-.153.683-.793 1.138-1.46 1.057-.697-.085-1.192-.65-1.195-1.4-.006-2.094-.002-4.19-.002-6.284V5.41C1.736 5.34.552 5.713 0 4.411V1z" fill="#FFF" mask="url(#b)"/>
        </g>
        <path d="m19.789 17.063 1.32 2.661H8.712l1.314-2.661h-.509c-1.482 0-2.963.008-4.445-.003-1.813-.013-3.179-1.375-3.183-3.189-.01-3.56-.01-7.122 0-10.683C1.894 1.376 3.263.008 5.077.006c6.555-.007 13.11-.007 19.666 0 1.815.002 3.179 1.368 3.184 3.186.01 3.56.01 7.122 0 10.683-.005 1.817-1.37 3.173-3.186 3.185-1.482.01-2.963.003-4.445.003h-.507zM37.346 9.432a1.36 1.36 0 0 0-1.331 1.349 1.36 1.36 0 0 0 1.338 1.342 1.36 1.36 0 0 0 1.353-1.372 1.36 1.36 0 0 0-1.36-1.32zM32.003 19.72h10.723V6.758H32.003V19.72zM31.975 4.012c0-.94-.022-1.85.008-2.759A1.297 1.297 0 0 1 33.277.01C36-.003 38.72-.003 41.441.01c.7.003 1.272.55 1.296 1.242.032.909.008 1.82.008 2.76h-10.77z" fill="#FFF"/>
    </g>
</svg>
