<svg width="43" height="43" viewBox="0 0 43 43" xmlns="http://www.w3.org/2000/svg" xmlns:xlink="http://www.w3.org/1999/xlink">
    <defs>
        <path id="a" d="M0 0h10.75v10.752H0z"/>
        <path id="c" d="M0 0h10.747v10.753H0z"/>
    </defs>
    <g fill="none" fill-rule="evenodd">
        <path d="M16.795 0c.385.11.779.197 1.155.332 2.513.9 3.99 3.547 3.437 6.138-.567 2.65-3.003 4.478-5.683 4.265-2.687-.214-4.835-2.426-4.947-5.097-.116-2.757 1.786-5.101 4.51-5.561.063-.011.123-.05.184-.077h1.344zM38.293 0c.385.11.778.197 1.155.332 2.513.9 3.99 3.547 3.436 6.138-.566 2.65-3.001 4.478-5.682 4.265-2.688-.214-4.835-2.426-4.947-5.097C32.139 2.881 34.04.537 36.764.077c.064-.011.123-.05.185-.077h1.344z" fill="#FFF"/>
        <g transform="translate(0 10.745)">
            <mask id="b" fill="#fff">
                <use xlink:href="#a"/>
            </mask>
            <path d="M0 4.708c.11-.385.197-.779.332-1.155.9-2.513 3.547-3.991 6.137-3.437C9.12.683 10.946 3.118 10.733 5.8c-.213 2.688-2.425 4.835-5.095 4.947C2.88 10.863.537 8.96.077 6.237.066 6.173.027 6.114 0 6.052V4.708z" fill="#FFF" mask="url(#b)"/>
        </g>
        <g transform="translate(0 32.245)">
            <mask id="d" fill="#fff">
                <use xlink:href="#c"/>
            </mask>
            <path d="M0 4.709c.1-.36.18-.726.302-1.077.896-2.57 3.545-4.076 6.167-3.515a5.394 5.394 0 0 1 4.267 5.642c-.175 2.671-2.39 4.856-5.057 4.987C2.926 10.881.525 8.965.081 6.28.068 6.202.028 6.128 0 6.053V4.709z" fill="#FFF" mask="url(#d)"/>
        </g>
        <path d="M32.245 16.132a5.384 5.384 0 0 1-5.369 5.367 5.384 5.384 0 0 1-5.377-5.4 5.384 5.384 0 0 1 5.39-5.347 5.384 5.384 0 0 1 5.356 5.38M16.138 21.502a5.384 5.384 0 0 1 5.358 5.378c-.002 2.972-2.437 5.39-5.408 5.37a5.385 5.385 0 0 1-5.338-5.4 5.384 5.384 0 0 1 5.388-5.348M42.994 26.86a5.383 5.383 0 0 1-5.348 5.39 5.384 5.384 0 0 1-5.398-5.38 5.383 5.383 0 0 1 5.368-5.368 5.384 5.384 0 0 1 5.378 5.359M26.883 43a5.383 5.383 0 0 1-5.384-5.352 5.384 5.384 0 0 1 5.383-5.396 5.383 5.383 0 0 1 5.363 5.373A5.383 5.383 0 0 1 26.883 43" fill="#FFF"/>
    </g>
</svg>
