<svg width="42" height="46" viewBox="0 0 42 46" xmlns="http://www.w3.org/2000/svg" xmlns:xlink="http://www.w3.org/1999/xlink">
    <defs>
        <path id="a" d="M0 0h20.056v45.977H0z"/>
        <path id="c" d="M0 0h20.038v46H0z"/>
    </defs>
    <g fill="none" fill-rule="evenodd">
        <g transform="translate(21.944 .023)">
            <mask id="b" fill="#fff">
                <use xlink:href="#a"/>
            </mask>
            <path d="M5.196 45.977c-.071-.142-.129-.294-.216-.426-1.035-1.552-2.066-3.107-3.115-4.65C.86 39.424.349 37.802.35 36.009c.005-4.945.004-9.89 0-14.835-.001-.965.379-1.69 1.267-2.076.797-.346 1.544-.192 2.187.39.496.447.674 1.034.673 1.695-.005 2.877-.002 5.754-.002 8.632v.575h2.56c.007-.139.02-.283.02-.428 0-2.997.005-5.994 0-8.99-.006-2.65-1.69-4.552-4.28-4.87-.122-.014-.302-.144-.334-.255C1.684 13.172.864 10.512.225 7.81c-.588-2.49.003-4.81 1.467-6.897.205-.293.427-.575.643-.86.015-.02.047-.026.097-.052.17.348.34.695.508 1.043 2.996 6.248 5.993 12.495 8.98 18.747.122.258.19.57.19.856.013 4.48.004 8.96.02 13.441.001.289.103.623.266.859 2.462 3.56 4.943 7.106 7.418 10.657.085.122.162.25.242.374H5.196z" fill="#FFF" mask="url(#b)"/>
        </g>
        <g>
            <mask id="d" fill="#fff">
                <use xlink:href="#c"/>
            </mask>
            <path d="m0 46 6.187-8.893c.494-.71 1.008-1.408 1.473-2.138.156-.245.265-.57.266-.859.016-4.495.009-8.99.018-13.486 0-.244.051-.51.155-.73 3.11-6.507 6.229-13.01 9.347-19.514.057-.12.124-.235.2-.38 1.762 2.055 2.71 4.397 2.295 7.08-.286 1.85-.895 3.652-1.377 5.47-.288 1.084-.616 2.156-.908 3.238-.065.24-.166.333-.419.356-2.33.21-4.164 2.076-4.211 4.446-.065 3.235-.019 6.473-.019 9.71 0 .027.015.055.033.117h2.541v-.535c0-2.922-.007-5.844.004-8.766.005-1.467 1.25-2.452 2.605-2.09a2.044 2.044 0 0 1 1.491 1.767c.021.208.023.419.023.628.002 4.78-.014 9.56.009 14.34.01 1.954-.508 3.712-1.617 5.314-1.029 1.484-2.016 2.997-3.018 4.5-.088.131-.146.283-.218.425H0z" fill="#FFF" mask="url(#d)"/>
        </g>
    </g>
</svg>
