<svg width="53" height="53" viewBox="0 0 53 53" xmlns="http://www.w3.org/2000/svg" xmlns:xlink="http://www.w3.org/1999/xlink">
    <defs>
        <path id="a" d="M0 0h52.976v15.758H0z"/>
        <path id="c" d="M0 0h27.839v27.953H0z"/>
        <path id="e" d="M0 0h52.99v19.662H0z"/>
    </defs>
    <g fill="none" fill-rule="evenodd">
        <g transform="translate(.021 37.242)">
            <mask id="b" fill="#fff">
                <use xlink:href="#a"/>
            </mask>
            <path d="M26.07 15.758c-2.746-1.376-5.488-2.757-8.236-4.127A10189.39 10189.39 0 0 0 1.087 3.294C.448 2.977.006 2.539 0 1.797-.006 1.028.465.6 1.106.253c.516-.28.924-.293 1.472-.018C9.8 3.863 17.039 7.46 24.273 11.067c1.52.757 3.016.708 4.53-.048 6.61-3.304 13.228-6.593 19.843-9.888.727-.362 1.447-.738 2.184-1.077a.817.817 0 0 1 .565-.007c.306.111.601.27.874.448a1.53 1.53 0 0 1 .012 2.572c-.2.134-.42.239-.636.347L27.577 15.403c-.228.114-.451.236-.677.355h-.83z" fill="#FFF" mask="url(#b)"/>
        </g>
        <g transform="translate(12.588)">
            <mask id="d" fill="#fff">
                <use xlink:href="#c"/>
            </mask>
            <path d="M13.914 18.635c2.561.002 4.664-2.079 4.677-4.626.013-2.576-2.087-4.684-4.669-4.686-2.56-.002-4.665 2.08-4.677 4.626-.013 2.575 2.09 4.685 4.67 4.686M4.89 3.51c.328.163.852.379 1.325.674.37.23.628.244 1.002-.024.529-.38 1.141-.642 1.695-.991a.775.775 0 0 0 .316-.493c.049-.374.004-.758.019-1.137.031-.854.665-1.517 1.52-1.525 2.093-.019 4.188-.018 6.282-.001.88.007 1.624.686 1.515 1.554-.141 1.126.254 1.775 1.305 2.1.128.039.257.12.351.215.621.634 1.197.477 1.882.035 1.113-.718 1.902-.472 2.574.682.946 1.624 1.889 3.25 2.828 4.877.594 1.03.406 1.905-.659 2.42-.823.397-1.205.868-1.004 1.806.094.44-.044.925-.028 1.389a.698.698 0 0 0 .248.476c.304.224.657.38.978.584.77.488 1.025 1.324.583 2.107a287.567 287.567 0 0 1-3.138 5.415c-.448.755-1.366 1.045-2.066.536-.934-.679-1.728-.721-2.555.088a.522.522 0 0 1-.227.123c-.938.244-1.149.863-1.063 1.768.086.907-.396 1.513-1.173 1.711-.164.042-.342.05-.513.051-1.973.003-3.946.005-5.92.001-1.08-.002-1.792-.638-1.7-1.692.083-.97-.155-1.597-1.138-1.892-.32-.095-.626-.31-.879-.538-.38-.34-.692-.294-1.084-.02-1.418.99-2.35.85-3.242-.825-.81-1.521-1.718-2.99-2.58-4.483-.612-1.058-.419-1.902.671-2.454.75-.38 1.22-.786.979-1.714-.097-.37-.071-.804.018-1.181.122-.517-.096-.745-.517-.947-1.764-.848-1.795-1.791-.9-3.21.938-1.487 1.779-3.035 2.655-4.56.316-.55.77-.87 1.64-.925" fill="#FFF" mask="url(#d)"/>
        </g>
        <g transform="translate(0 18.792)">
            <mask id="f" fill="#fff">
                <use xlink:href="#e"/>
            </mask>
            <path d="M9.543.057c1.185 2.048 2.355 4.077 3.53 6.102 1.24 2.136 3.102 2.939 5.526 2.39.048-.011.101-.002.186-.002l.137.422c.617 1.955 2.375 3.275 4.433 3.292 2.043.017 4.086.008 6.129.003 2.259-.006 3.967-1.272 4.64-3.428.031-.096.067-.191.063-.18.845 0 1.64.084 2.411-.019 1.26-.168 2.306-.823 2.965-1.899C40.79 4.74 41.931 2.69 43.102.658c.11-.19.175-.407.28-.658.408.2.792.387 1.174.577 2.489 1.24 4.977 2.482 7.467 3.72.61.304.974.775.967 1.467-.007.668-.364 1.13-.956 1.422-.062.03-.122.063-.184.094L38.17 14.098c-3.525 1.756-7.057 3.5-10.571 5.276-.747.377-1.401.389-2.158.01-8.08-4.046-16.17-8.066-24.253-12.106-.33-.164-.67-.392-.888-.679-.557-.736-.312-1.777.538-2.208C3.72 2.93 6.617 1.503 9.51.063c.03-.014.067-.012.034-.006" fill="#FFF" mask="url(#f)"/>
        </g>
        <path d="M53 31.78c-.037.72-.417 1.176-1.044 1.485-2.369 1.17-4.73 2.355-7.095 3.533-5.75 2.865-11.504 5.72-17.245 8.603-.767.386-1.429.393-2.202.006-8.061-4.038-16.135-8.051-24.204-12.072-.185-.093-.375-.182-.543-.302a1.53 1.53 0 0 1 .01-2.513c.678-.48 1.287-.625 2.153-.187 7.147 3.622 14.33 7.176 21.503 10.748 1.502.748 2.987.685 4.481-.061 6.611-3.303 13.228-6.592 19.842-9.886.727-.362 1.445-.74 2.184-1.076.171-.078.425-.06.613.001.275.09.532.247.783.397.5.3.736.757.764 1.323" fill="#FFF"/>
    </g>
</svg>
