<svg width="49" height="47" viewBox="0 0 49 47" xmlns="http://www.w3.org/2000/svg" xmlns:xlink="http://www.w3.org/1999/xlink">
    <defs>
        <path id="a" d="M0 0h49v39.463H0z"/>
    </defs>
    <g fill="none" fill-rule="evenodd">
        <g transform="translate(0 7.537)">
            <mask id="b" fill="#fff">
                <use xlink:href="#a"/>
            </mask>
            <path d="M0 23.097c.263-1.18.865-2.127 2.02-2.583a5.116 5.116 0 0 1 1.76-.344c2.424-.038 4.848-.01 7.271-.026.208-.002.48-.096.613-.244 4.147-4.584 8.28-9.18 12.415-13.774.042-.047.075-.101.175-.238-.659 0-1.252-.016-1.842.013-.126.007-.257.167-.363.278-1.712 1.794-3.413 3.598-5.13 5.386-1.01 1.05-2.315 1.318-3.474.75-1.653-.81-2.13-2.894-.993-4.368.155-.2.332-.386.516-.56C15.405 5.082 17.85 2.784 20.28.472c.348-.33.722-.474 1.198-.472 2.838.01 5.676.012 8.514.001 1.074-.004 1.977.345 2.765 1.081 1.883 1.758 3.791 3.488 5.69 5.228.562.515.79.511 1.32-.02 1.303-1.306 2.642-2.577 3.895-3.928 1.957-2.11 4.772-.897 5.26 1.215.01.041.051.076.078.113v1.047c-.273.934-.936 1.586-1.606 2.246-2.085 2.052-4.188 4.088-6.216 6.195-1.33 1.382-3.327 1.43-4.668-.017-1.132-1.221-2.35-2.362-3.505-3.512l-5.554 5.539c.062.066.173.191.292.309 2.143 2.129 4.283 4.262 6.436 6.381.362.357.487.717.39 1.231-.858 4.495-1.682 8.997-2.539 13.492-.268 1.41-1.099 2.395-2.522 2.746-1.353.333-2.533-.056-3.426-1.139-.663-.806-.839-1.755-.679-2.774.504-3.208 1.009-6.415 1.5-9.624.025-.16-.012-.393-.116-.503-1.585-1.673-3.187-3.331-4.786-4.992-.031-.033-.078-.052-.19-.124-.1.126-.197.27-.315.396-1.819 1.933-3.646 3.86-5.457 5.8-.33.353-.7.502-1.18.501-3.732-.008-7.464-.017-11.195 0-1.91.01-3.292-1.157-3.588-2.724-.008-.042-.05-.077-.076-.116v-.951z" fill="#FFF" mask="url(#b)"/>
        </g>
        <path d="M38.854 0c2.753.001 5.055 2.278 5.067 5.01.011 2.741-2.318 5.066-5.074 5.063-2.763-.003-5.075-2.319-5.063-5.07C33.797 2.268 36.095 0 38.854 0" fill="#FFF"/>
    </g>
</svg>
