<svg width="34" height="44" viewBox="0 0 34 44" xmlns="http://www.w3.org/2000/svg" xmlns:xlink="http://www.w3.org/1999/xlink">
    <defs>
        <path id="a" d="M0 0h7.463v10.987H0z"/>
        <path id="c" d="M0 0h7.477v10.914H0z"/>
        <path id="e" d="M0 0h7.977v8.636H0z"/>
    </defs>
    <g fill="none" fill-rule="evenodd">
        <path d="M21.654 10.955a.786.786 0 0 0 .72.82.783.783 0 0 0 .075-1.564.783.783 0 0 0-.795.744m-10.052.82a.783.783 0 0 0 .026-1.564.782.782 0 0 0-.794.794c.005.422.352.77.768.77m5.329 1.473c-.753.152-1.622.245-2.434.513-.991.328-1.522 1.22-1.306 2.177.154.685.404 1.393.79 1.967.745 1.11 1.848 1.768 3.19 1.7 1.72-.088 3.236-1.532 3.607-3.26.293-1.365-.218-2.32-1.546-2.704-.703-.203-1.448-.253-2.301-.393m-10.738-.714c.025-6.116 4.899-11.007 10.932-10.971 5.873.035 10.729 5.004 10.705 10.956-.026 6.224-4.857 11.074-11.004 11.046-5.829-.027-10.657-5.036-10.633-11.03" fill="#FFF"/>
        <path d="M8.656 21.82c2.413 2.177 5.19 3.32 8.38 3.313 3.172-.007 5.935-1.142 8.298-3.28 1.988 2.346 3.801 8.803 3.183 11.282-5.22-1.195-9.458 4.299-6.82 9.324-3.123 1.011-6.215 1-9.368.004 1.191-2.43 1.168-4.788-.442-6.955-1.598-2.15-3.801-2.834-6.448-2.34-.127-4.148.964-7.89 3.217-11.348" fill="#FFF"/>
        <path d="M6.95 44c-2.55-.007-4.627-2.134-4.62-4.73.007-2.593 2.098-4.705 4.652-4.698 2.551.007 4.626 2.131 4.62 4.73-.008 2.594-2.098 4.705-4.652 4.698M31.695 39.278c.004 2.597-2.075 4.718-4.627 4.722-2.55.004-4.64-2.114-4.644-4.706-.003-2.596 2.078-4.718 4.628-4.722 2.554-.003 4.64 2.11 4.643 4.706" fill="#FFF"/>
        <g transform="translate(26.537 19.09)">
            <mask id="b" fill="#fff">
                <use xlink:href="#a"/>
            </mask>
            <path d="M1.062 0c3.049 1.54 5.294 3.747 6.247 7.113.144.506.183 1.073.134 1.599-.15 1.632-1.422 2.487-3.225 2.23-.749-.108-.75-.108-.878-.87A20.769 20.769 0 0 0 .156 1.995c-.188-.284-.231-.474.013-.754C.485.876.739.456 1.062 0" fill="#FFF" mask="url(#b)"/>
        </g>
        <g transform="translate(0 19.126)">
            <mask id="d" fill="#fff">
                <use xlink:href="#c"/>
            </mask>
            <path d="M6.444 0c.356.49.704.938 1.008 1.415.061.097-.002.333-.082.455a21.39 21.39 0 0 0-3.16 7.784c-.018.096-.034.193-.05.29-.143.882-.16.931-1.039.964-.505.02-1.04-.003-1.52-.15C.422 10.4-.174 9.163.046 7.693.315 5.881 1.21 4.39 2.368 3.037 3.49 1.723 4.824.693 6.444 0" fill="#FFF" mask="url(#d)"/>
        </g>
        <path d="M5.25 8.683c-1.539-1.116-2.269-2.565-2.122-4.41A4.657 4.657 0 0 1 6.356.208c1.704-.536 3.652-.007 4.74 1.31C8.288 3.143 6.34 5.501 5.25 8.683" fill="#FFF"/>
        <g transform="translate(22.953)">
            <mask id="f" fill="#fff">
                <use xlink:href="#e"/>
            </mask>
            <path d="M5.807 8.636C4.733 5.51 2.799 3.152 0 1.53.784.361 2.757-.272 4.397.113c1.883.442 3.286 2.05 3.547 4.066.221 1.71-.702 3.67-2.137 4.457" fill="#FFF" mask="url(#f)"/>
        </g>
        <path d="M17.024 14.861c.598.088 1.191.136 1.765.272.502.118.606.373.485.877-.015.063-.028.127-.047.19-.31 1.032-1.43 1.935-2.302 1.855-1.019-.092-2.022-1.086-2.211-2.169-.076-.435.14-.675.504-.75.594-.123 1.2-.186 1.806-.275" fill="#FFF"/>
    </g>
</svg>
