<svg width="50" height="35" viewBox="0 0 50 35" xmlns="http://www.w3.org/2000/svg" xmlns:xlink="http://www.w3.org/1999/xlink">
    <defs>
        <path id="a" d="M0 0h50v35H0z"/>
    </defs>
    <g fill="none" fill-rule="evenodd">
        <mask id="b" fill="#fff">
            <use xlink:href="#a"/>
        </mask>
        <path d="M10.987 26.132c2.13-.155 3.734-1.886 3.613-3.844-.133-2.192-1.898-3.667-3.874-3.59-2.341.092-3.756 1.951-3.65 3.847.12 2.161 1.896 3.733 3.911 3.587zm31.992-3.73c-.01-2.046-1.69-3.708-3.755-3.721-2.06-.013-3.79 1.703-3.778 3.75.01 2.04 1.696 3.706 3.76 3.717 2.075.011 3.785-1.687 3.773-3.746zm-2.5-10.072c-.672-1.77-1.334-3.457-2.294-5.015a3.873 3.873 0 0 0-1.572-1.467C35.11 5.08 33.5 4.655 31.85 4.362c-3.658-.65-7.34-.735-11.033-.371-2.284.225-4.532.624-6.677 1.492-1.147.465-2.06 1.156-2.595 2.275a151.924 151.924 0 0 0-1.503 3.237c-.189.418-.34.855-.529 1.335H40.48zM50 11.996c-.226 1-.46 1.998-.675 3-.22 1.025-.608 1.349-1.677 1.35H46.5c.239.325.444.585.629.858 2.33 3.448 1.924 7.929-.97 10.92a.993.993 0 0 0-.25.625c-.02 1.383-.007 2.77-.01 4.154-.005 1.334-.767 2.087-2.122 2.092-1.366.007-2.734.007-4.1 0-1.33-.006-2.084-.752-2.096-2.063-.005-.562 0-1.125 0-1.732H12.416c0 .517.002 1.042 0 1.564-.003 1.533-.71 2.231-2.267 2.233-1.318.001-2.637.006-3.955-.002-1.324-.006-2.09-.763-2.096-2.068-.006-1.432.008-2.863-.013-4.297a.895.895 0 0 0-.235-.582C.824 25.146.517 19.983 3.192 16.662c.06-.073.108-.154.217-.314-.468 0-.865.004-1.26-.002-.794-.013-1.253-.354-1.426-1.118a95.68 95.68 0 0 1-.698-3.353c-.157-.836.438-1.502 1.342-1.51 1.432-.014 2.866-.019 4.296.005.37.006.544-.108.677-.444.73-1.843 1.541-3.644 2.709-5.272.82-1.14 1.91-1.908 3.18-2.467C14.6 1.144 17.109.63 19.666.32A44.358 44.358 0 0 1 29.31.21c2.709.261 5.361.77 7.92 1.736 2.12.801 3.652 2.197 4.654 4.17.642 1.26 1.21 2.558 1.791 3.85.13.29.268.409.605.404 1.35-.022 2.7.014 4.05-.02.788-.018 1.357.237 1.67.97v.676z" fill="#FFF" mask="url(#b)"/>
    </g>
</svg>
