<svg viewBox="0 0 24 14" xmlns="http://www.w3.org/2000/svg">
    <g fill="none" fill-rule="evenodd">
        <path d="m9.876 7.306 1.547 1.423-4.598 4.335a2.4 2.4 0 0 1-1.646.654h-.696a.4.4 0 0 1-.4-.4v-2.089c0-.22.18-.4.4-.4h.738a2.4 2.4 0 0 0 1.656-.663l3-2.86zm10.228-6.023a.4.4 0 0 1 .262.098l2.646 2.297a.4.4 0 0 1 .008.596l-2.615 2.41a.4.4 0 0 1-.671-.284l-.019-.655a.4.4 0 0 0-.401-.389l-3.637.016a1.76 1.76 0 0 0-1.2.48l-.43.405-1.563-1.437 1.648-1.572a1.76 1.76 0 0 1 1.218-.486l3.954.007a.4.4 0 0 0 .4-.399v-.687c0-.22.18-.4.4-.4z" fill="#EF7F7A"/>
        <path d="M3.511 1.381.866 3.678a.4.4 0 0 0-.009.596l2.616 2.41a.4.4 0 0 0 .67-.284l.02-.655a.4.4 0 0 1 .4-.389l3.638.016a1.76 1.76 0 0 1 1.2.48l7.652 7.212a2.4 2.4 0 0 0 1.646.654h.695a.4.4 0 0 0 .4-.4v-2.089a.4.4 0 0 0-.4-.4h-.737A2.4 2.4 0 0 1 17 10.166L9.745 3.248a1.76 1.76 0 0 0-1.218-.486l-3.953.007a.4.4 0 0 1-.4-.4v-.686a.4.4 0 0 0-.663-.302z" fill="#6CCCC0"/>
    </g>
</svg>
